<?xml version="1.0" standalone="no"?>
<!DOCTYPE svg PUBLIC "-//W3C//DTD SVG 20010904//EN"
 "http://www.w3.org/TR/2001/REC-SVG-20010904/DTD/svg10.dtd">
<svg version="1.0" xmlns="http://www.w3.org/2000/svg"
 width="768.000000pt" height="768.000000pt" viewBox="0 0 768.000000 768.000000"
 preserveAspectRatio="xMidYMid meet">
<metadata>
Created by potrace 1.14, written by Peter Selinger 2001-2017
</metadata>
<g transform="translate(0.000000,768.000000) scale(0.100000,-0.100000)"
fill="#000000" stroke="none">
<path d="M4175 6640 c-63 -4 -88 -11 -114 -29 -68 -49 -67 -35 -66 -662 1
-632 -2 -604 74 -654 l38 -26 572 0 c638 0 606 -3 661 72 l29 41 1 564 c0 544
0 566 -20 603 -23 46 -59 77 -100 86 -36 8 -964 12 -1075 5z"/>
<path d="M2729 5206 c-2 -2 -20 -6 -39 -7 -66 -6 -120 -54 -137 -119 -5 -19
-8 -282 -8 -585 1 -435 4 -555 15 -575 20 -38 68 -78 104 -86 17 -4 279 -7
582 -7 l551 0 42 24 c58 32 83 82 82 162 -1 51 -1 55 0 112 1 28 1 61 0 75 -3
78 -3 96 -2 110 1 12 1 140 1 235 0 6 0 33 1 60 1 28 1 61 0 75 -2 77 -3 96
-2 105 5 65 4 162 -1 158 -5 -2 -4 7 1 20 6 14 7 27 5 30 -3 3 -7 28 -8 56 -2
54 -21 89 -69 125 -31 23 -70 27 -237 26 -63 -1 -122 -1 -130 -1 -8 1 -62 1
-120 0 -58 0 -112 0 -120 0 -8 1 -62 1 -120 0 -58 0 -112 0 -120 0 -66 3 -224
1 -228 -3 -2 -3 -12 -1 -22 4 -10 5 -19 8 -21 6z"/>
<path d="M4178 5204 c-3 -2 -23 -6 -45 -8 -60 -6 -117 -51 -131 -106 -2 -8 -5
-267 -6 -574 -2 -630 -4 -611 73 -662 l41 -26 566 0 c632 0 615 -2 664 69 l25
37 3 545 c2 300 0 565 -3 588 -12 80 -83 134 -175 134 -25 0 -71 0 -103 -1
-32 0 -62 -2 -67 -5 -5 -3 -11 -1 -14 4 -3 4 -23 5 -44 1 -21 -3 -47 -3 -58 0
-10 4 -26 4 -35 -1 -9 -5 -19 -6 -21 -4 -8 8 -99 11 -103 4 -3 -3 -17 -4 -32
-2 -41 6 -162 5 -172 -2 -5 -3 -12 -1 -15 4 -3 4 -23 5 -44 1 -21 -3 -47 -3
-58 0 -10 4 -26 4 -35 -1 -9 -5 -19 -6 -21 -3 -6 5 -84 8 -103 4 -24 -5 -41
-5 -61 2 -12 4 -24 5 -26 2z"/>
<path d="M5567 5195 c-52 -13 -111 -67 -119 -108 -2 -12 -4 -277 -4 -588 l1
-566 28 -36 c55 -72 26 -69 656 -69 607 -1 598 -1 643 49 44 48 45 59 43 648
-1 620 1 598 -66 646 -36 25 -80 30 -259 29 -63 -1 -122 -1 -130 -1 -8 1 -62
1 -120 0 -58 0 -112 0 -120 0 -8 1 -62 1 -120 0 -58 0 -112 0 -120 0 -66 3
-224 1 -228 -3 -2 -3 -12 -1 -21 3 -9 5 -36 3 -64 -4z"/>
<path d="M1265 3760 c-11 -4 -25 -5 -32 -3 -25 10 -93 -40 -113 -82 -20 -41
-20 -60 -20 -609 l1 -567 25 -38 c49 -75 32 -73 666 -73 430 0 571 3 589 12
30 16 68 58 81 90 5 14 9 256 10 582 1 594 1 594 -48 643 -28 29 -81 47 -126
43 -18 -1 -39 1 -45 5 -6 4 -14 3 -18 -2 -3 -6 -13 -7 -22 -4 -14 6 -70 7 -90
3 -21 -4 -103 -1 -111 4 -6 3 -13 2 -17 -3 -3 -6 -13 -7 -22 -4 -14 6 -70 7
-90 3 -21 -4 -103 -1 -111 4 -6 3 -13 2 -17 -3 -3 -6 -13 -7 -22 -4 -14 6 -70
7 -90 3 -21 -4 -103 -1 -111 4 -6 3 -13 2 -17 -3 -3 -6 -13 -7 -22 -4 -14 6
-70 7 -90 3 -19 -4 -102 -2 -110 3 -4 2 -17 1 -28 -3z"/>
<path d="M2778 3765 c-2 -1 -34 -5 -71 -7 -86 -7 -137 -45 -154 -118 -5 -19
-8 -283 -7 -586 0 -517 2 -554 19 -580 22 -36 45 -58 74 -73 17 -10 163 -13
590 -13 521 0 571 1 602 17 35 18 78 62 80 80 0 6 3 19 5 30 4 16 5 129 4 265
0 8 0 38 1 65 1 28 1 61 0 75 -3 78 -3 96 -2 110 1 12 1 140 1 235 0 6 0 33 1
60 1 28 1 61 0 75 -3 78 -3 96 -2 110 6 82 0 134 -17 167 -32 59 -117 93 -207
83 -28 -3 -64 -3 -80 0 -17 3 -52 3 -80 0 -27 -3 -63 -3 -80 0 -16 3 -52 3
-80 0 -27 -3 -63 -3 -80 0 -16 3 -52 3 -80 0 -27 -3 -63 -3 -80 0 -16 3 -52 3
-80 0 -27 -3 -63 -3 -80 0 -16 3 -53 3 -81 0 -27 -3 -64 -3 -82 1 -17 3 -33 5
-34 4z"/>
<path d="M4158 3765 c-4 -4 -42 -13 -64 -14 -19 -1 -81 -69 -91 -99 -5 -15 -9
-272 -8 -587 1 -596 0 -582 49 -631 46 -46 38 -45 634 -46 359 0 576 4 592 10
36 14 79 63 90 103 6 20 10 254 10 584 l0 550 -23 39 c-34 61 -66 79 -142 82
-36 2 -69 5 -74 9 -5 3 -12 2 -15 -3 -3 -5 -28 -6 -56 -2 -27 4 -52 4 -55 2
-7 -7 -102 -5 -113 2 -6 3 -13 3 -16 -2 -3 -5 -28 -6 -56 -2 -27 4 -52 4 -55
2 -7 -7 -102 -5 -113 2 -6 3 -13 3 -16 -2 -3 -5 -28 -6 -56 -2 -27 4 -52 4
-55 2 -7 -7 -102 -5 -113 2 -6 3 -13 3 -16 -2 -3 -5 -28 -6 -56 -2 -27 4 -52
4 -55 2 -7 -7 -101 -5 -113 2 -5 3 -11 3 -14 1z"/>
<path d="M2635 2303 c-38 -21 -49 -32 -70 -73 -17 -32 -18 -77 -18 -595 0
-630 -2 -612 73 -661 l41 -27 552 0 c304 -1 569 3 589 7 36 6 106 64 110 89 6
52 9 168 8 300 0 6 1 32 3 57 1 25 0 57 -4 73 -4 15 -4 27 -1 27 4 0 6 17 4
38 -2 20 -3 49 -3 65 1 30 1 200 1 220 0 6 1 32 3 57 1 25 0 57 -4 73 -4 15
-4 27 -1 27 4 0 6 17 4 38 -3 41 -3 72 -1 117 5 79 -43 156 -112 175 -21 6
-251 10 -589 10 -487 -1 -559 -3 -585 -17z"/>
</g>
</svg>
